<mxfile host="Electron" modified="2023-10-17T11:15:57.593Z" agent="Mozilla/5.0 (Windows NT 10.0; Win64; x64) AppleWebKit/537.36 (KHTML, like Gecko) draw.io/22.0.2 Chrome/114.0.5735.289 Electron/25.8.4 Safari/537.36" etag="2jMXpK-XHXRbgH42FLdf" version="22.0.2" type="device">
  <diagram name="icon" id="atx1VBKgfwcb9vTx7qAg">
    <mxGraphModel dx="1436" dy="869" grid="1" gridSize="10" guides="1" tooltips="1" connect="1" arrows="1" fold="1" page="1" pageScale="1" pageWidth="1654" pageHeight="1169" math="0" shadow="0">
      <root>
        <mxCell id="0" />
        <mxCell id="1" parent="0" />
        <mxCell id="60GprfWJX8-Ffhk_PJpC-50" value="" style="rounded=1;whiteSpace=wrap;html=1;strokeWidth=5;aspect=fixed;arcSize=9;fillColor=#F5F5F5;strokeColor=none;" parent="1" vertex="1">
          <mxGeometry x="461.5" y="305" width="410" height="410" as="geometry" />
        </mxCell>
        <mxCell id="60GprfWJX8-Ffhk_PJpC-23" value="callout" style="locked=1;" parent="0" />
        <mxCell id="60GprfWJX8-Ffhk_PJpC-34" value="" style="group" parent="60GprfWJX8-Ffhk_PJpC-23" vertex="1" connectable="0">
          <mxGeometry x="490" y="343" width="353" height="100" as="geometry" />
        </mxCell>
        <mxCell id="60GprfWJX8-Ffhk_PJpC-2" value="" style="rounded=1;whiteSpace=wrap;html=1;arcSize=3;fillColor=#EEF5F8;strokeColor=#D2D9DB;strokeWidth=3;opacity=60;" parent="60GprfWJX8-Ffhk_PJpC-34" vertex="1">
          <mxGeometry width="353" height="100" as="geometry" />
        </mxCell>
        <mxCell id="60GprfWJX8-Ffhk_PJpC-4" value="&lt;span style=&quot;font-size: 28px;&quot;&gt;&lt;b&gt;Note&lt;/b&gt;&lt;/span&gt;" style="text;html=1;strokeColor=none;fillColor=none;align=left;verticalAlign=middle;whiteSpace=wrap;rounded=0;" parent="60GprfWJX8-Ffhk_PJpC-34" vertex="1">
          <mxGeometry x="66.5" y="17" width="140" height="40" as="geometry" />
        </mxCell>
        <mxCell id="60GprfWJX8-Ffhk_PJpC-5" value="&lt;font style=&quot;font-size: 18px;&quot;&gt;&lt;b&gt;xxxxx&lt;/b&gt;&lt;/font&gt;" style="text;html=1;strokeColor=none;fillColor=none;align=left;verticalAlign=middle;whiteSpace=wrap;rounded=0;" parent="60GprfWJX8-Ffhk_PJpC-34" vertex="1">
          <mxGeometry x="76.5" y="57" width="100" height="30" as="geometry" />
        </mxCell>
        <mxCell id="60GprfWJX8-Ffhk_PJpC-46" value="&lt;font color=&quot;#ffffff&quot; face=&quot;Georgia&quot; size=&quot;1&quot; style=&quot;&quot;&gt;&lt;b style=&quot;font-size: 25px;&quot;&gt;i&lt;/b&gt;&lt;/font&gt;" style="rounded=1;whiteSpace=wrap;html=1;fillColor=#007FFF;strokeColor=none;" parent="60GprfWJX8-Ffhk_PJpC-34" vertex="1">
          <mxGeometry x="20" y="20.5" width="33" height="33" as="geometry" />
        </mxCell>
        <mxCell id="60GprfWJX8-Ffhk_PJpC-35" value="" style="group" parent="60GprfWJX8-Ffhk_PJpC-23" vertex="1" connectable="0">
          <mxGeometry x="490" y="460" width="353" height="100" as="geometry" />
        </mxCell>
        <mxCell id="60GprfWJX8-Ffhk_PJpC-36" value="" style="rounded=1;whiteSpace=wrap;html=1;arcSize=3;fillColor=#F9D1EA;strokeColor=#DBB8CE;strokeWidth=3;opacity=60;" parent="60GprfWJX8-Ffhk_PJpC-35" vertex="1">
          <mxGeometry width="353" height="100" as="geometry" />
        </mxCell>
        <mxCell id="60GprfWJX8-Ffhk_PJpC-37" value="" style="shape=mxgraph.signs.travel.information_1;html=1;pointerEvents=1;fillColor=#BF122D;strokeColor=none;verticalLabelPosition=bottom;verticalAlign=top;align=center;sketch=0;" parent="60GprfWJX8-Ffhk_PJpC-35" vertex="1">
          <mxGeometry x="16.5" y="17" width="40" height="40" as="geometry" />
        </mxCell>
        <mxCell id="60GprfWJX8-Ffhk_PJpC-38" value="&lt;b style=&quot;&quot;&gt;&lt;font style=&quot;font-size: 28px;&quot;&gt;Question&lt;/font&gt;&lt;/b&gt;" style="text;html=1;strokeColor=none;fillColor=none;align=left;verticalAlign=middle;whiteSpace=wrap;rounded=0;" parent="60GprfWJX8-Ffhk_PJpC-35" vertex="1">
          <mxGeometry x="66.5" y="17" width="140" height="40" as="geometry" />
        </mxCell>
        <mxCell id="60GprfWJX8-Ffhk_PJpC-39" value="&lt;font style=&quot;font-size: 18px;&quot;&gt;&lt;b&gt;xxxxx&lt;/b&gt;&lt;/font&gt;" style="text;html=1;strokeColor=none;fillColor=none;align=left;verticalAlign=middle;whiteSpace=wrap;rounded=0;" parent="60GprfWJX8-Ffhk_PJpC-35" vertex="1">
          <mxGeometry x="76.5" y="57" width="100" height="30" as="geometry" />
        </mxCell>
        <mxCell id="60GprfWJX8-Ffhk_PJpC-40" value="" style="group" parent="60GprfWJX8-Ffhk_PJpC-23" vertex="1" connectable="0">
          <mxGeometry x="490" y="580" width="353" height="100" as="geometry" />
        </mxCell>
        <mxCell id="60GprfWJX8-Ffhk_PJpC-41" value="" style="rounded=1;whiteSpace=wrap;html=1;arcSize=3;fillColor=#fff2cc;strokeColor=#d6b656;strokeWidth=3;opacity=60;" parent="60GprfWJX8-Ffhk_PJpC-40" vertex="1">
          <mxGeometry width="353" height="100" as="geometry" />
        </mxCell>
        <mxCell id="60GprfWJX8-Ffhk_PJpC-43" value="&lt;b style=&quot;&quot;&gt;&lt;font style=&quot;font-size: 28px;&quot;&gt;Notice&lt;/font&gt;&lt;/b&gt;" style="text;html=1;strokeColor=none;fillColor=none;align=left;verticalAlign=middle;whiteSpace=wrap;rounded=0;" parent="60GprfWJX8-Ffhk_PJpC-40" vertex="1">
          <mxGeometry x="66.5" y="17" width="140" height="40" as="geometry" />
        </mxCell>
        <mxCell id="60GprfWJX8-Ffhk_PJpC-44" value="&lt;font style=&quot;font-size: 18px;&quot;&gt;&lt;b&gt;xxxxx&lt;/b&gt;&lt;/font&gt;" style="text;html=1;strokeColor=none;fillColor=none;align=left;verticalAlign=middle;whiteSpace=wrap;rounded=0;" parent="60GprfWJX8-Ffhk_PJpC-40" vertex="1">
          <mxGeometry x="76.5" y="57" width="100" height="30" as="geometry" />
        </mxCell>
        <mxCell id="60GprfWJX8-Ffhk_PJpC-49" value="" style="group" parent="60GprfWJX8-Ffhk_PJpC-40" vertex="1" connectable="0">
          <mxGeometry x="14.000000000000057" y="14.999999999999886" width="46.10000000000002" height="36.88000000000011" as="geometry" />
        </mxCell>
        <mxCell id="60GprfWJX8-Ffhk_PJpC-47" value="&lt;h1&gt;&lt;br&gt;&lt;/h1&gt;" style="triangle;whiteSpace=wrap;html=1;rotation=-90;fillColor=#FFCD4C;strokeColor=none;" parent="60GprfWJX8-Ffhk_PJpC-49" vertex="1">
          <mxGeometry x="4.609999999999957" y="-4.6099999999999" width="36.88" height="46.1" as="geometry" />
        </mxCell>
        <mxCell id="60GprfWJX8-Ffhk_PJpC-48" value="&lt;font size=&quot;1&quot; style=&quot;&quot;&gt;&lt;b style=&quot;font-size: 22px;&quot;&gt;!&lt;/b&gt;&lt;/font&gt;" style="text;html=1;strokeColor=none;fillColor=none;align=center;verticalAlign=middle;whiteSpace=wrap;rounded=0;" parent="60GprfWJX8-Ffhk_PJpC-49" vertex="1">
          <mxGeometry x="13.049999999999955" y="12.3900000000001" width="20" height="20" as="geometry" />
        </mxCell>
      </root>
    </mxGraphModel>
  </diagram>
</mxfile>
